<svg width="20" height="20" viewBox="0 0 20 20" fill="none" xmlns="http://www.w3.org/2000/svg">
<rect width="20" height="20" rx="4" fill="#5F0F40"/>
<mask id="mask0_105_3919" style="mask-type:alpha" maskUnits="userSpaceOnUse" x="2" y="2" width="16" height="16">
<rect x="2.5" y="2.5" width="15" height="15" fill="#D9D9D9"/>
</mask>
<g mask="url(#mask0_105_3919)">
<path d="M15.2969 17.0625L10.1094 11.875H3.125C3.125 10.6146 3.61198 9.67448 4.58594 9.05469C5.5599 8.4349 6.63542 8.125 7.8125 8.125C7.86458 8.125 7.92188 8.1276 7.98438 8.13281C8.04688 8.13802 8.10417 8.14063 8.15625 8.14063V9.90625L2.92188 4.6875L3.8125 3.79688L16.1875 16.1719L15.2969 17.0625ZM3.125 14.375V13.125H12.5V14.375H3.125ZM3.75 16.875C3.57292 16.875 3.42448 16.8151 3.30469 16.6953C3.1849 16.5755 3.125 16.4271 3.125 16.25V15.625H12.5V16.25C12.5 16.4271 12.4401 16.5755 12.3203 16.6953C12.2005 16.8151 12.0521 16.875 11.875 16.875H3.75ZM16.0156 14.2188L9.65625 7.875L9.375 5.625H12.5V3.125H13.75V5.625H16.875L16.0156 14.2188Z" fill="white"/>
</g>
</svg>
