<svg width="20" height="20" viewBox="0 0 20 20" fill="none" xmlns="http://www.w3.org/2000/svg">
<rect width="20" height="20" rx="4" fill="#136F63"/>
<mask id="mask0_105_3954" style="mask-type:alpha" maskUnits="userSpaceOnUse" x="2" y="2" width="16" height="16">
<rect x="2.5" y="2.5" width="15" height="15" fill="#D9D9D9"/>
</mask>
<g mask="url(#mask0_105_3954)">
<path d="M15.6095 8.14079L11.8282 4.35954L12.0939 4.09392C12.3335 3.85433 12.6303 3.73715 12.9845 3.74235C13.3387 3.74756 13.6355 3.86996 13.8751 4.10954L15.8907 6.12517C16.1303 6.36475 16.2501 6.65902 16.2501 7.00798C16.2501 7.35694 16.1303 7.65121 15.8907 7.89079L15.6095 8.14079ZM7.90637 15.8752C7.66679 16.1147 7.37252 16.2345 7.02356 16.2345C6.6746 16.2345 6.38033 16.1147 6.14075 15.8752L4.12512 13.8595C3.88554 13.62 3.76575 13.3257 3.76575 12.9767C3.76575 12.6278 3.88554 12.3335 4.12512 12.0939L4.37512 11.8439L8.15637 15.6252L7.90637 15.8752ZM10.172 15.4377C10.047 15.5627 9.90116 15.6252 9.7345 15.6252C9.56783 15.6252 9.422 15.5627 9.297 15.4377L4.56262 10.7033C4.43762 10.5783 4.37512 10.4325 4.37512 10.2658C4.37512 10.0991 4.43762 9.95329 4.56262 9.82829L5.45325 8.92204C5.57825 8.79704 5.72668 8.73454 5.89856 8.73454C6.07043 8.73454 6.21887 8.79704 6.34387 8.92204L7.32825 9.90642L9.922 7.31267L8.93762 6.32829C8.81262 6.20329 8.75012 6.05746 8.75012 5.89079C8.75012 5.72412 8.81262 5.57829 8.93762 5.45329L9.82825 4.54704C9.95325 4.42204 10.1017 4.35954 10.2736 4.35954C10.4454 4.35954 10.5939 4.42204 10.7189 4.54704L15.4532 9.28142C15.5782 9.40642 15.6407 9.55485 15.6407 9.72673C15.6407 9.8986 15.5782 10.047 15.4532 10.172L14.547 11.0627C14.422 11.1877 14.2762 11.2502 14.1095 11.2502C13.9428 11.2502 13.797 11.1877 13.672 11.0627L12.6876 10.0783L10.0939 12.672L11.0782 13.6564C11.2032 13.7814 11.2657 13.9299 11.2657 14.1017C11.2657 14.2736 11.2032 14.422 11.0782 14.547L10.172 15.4377Z" fill="white"/>
</g>
</svg>
