<svg width="16" height="16" viewBox="0 0 16 16" fill="none" xmlns="http://www.w3.org/2000/svg">
<mask id="mask0_105_3935" style="mask-type:alpha" maskUnits="userSpaceOnUse" x="0" y="0" width="16" height="16">
<rect x="0.5" y="0.5" width="15" height="15" fill="#D9D9D9"/>
</mask>
<g mask="url(#mask0_105_3935)">
<path d="M3 14.25C2.82292 14.25 2.67448 14.1901 2.55469 14.0703C2.4349 13.9505 2.375 13.8021 2.375 13.625V11.125C2.375 10.7812 2.4974 10.487 2.74219 10.2422C2.98698 9.9974 3.28125 9.875 3.625 9.875H12.375C12.7188 9.875 13.013 9.9974 13.2578 10.2422C13.5026 10.487 13.625 10.7812 13.625 11.125V13.625C13.625 13.8021 13.5651 13.9505 13.4453 14.0703C13.3255 14.1901 13.1771 14.25 13 14.25H3ZM3.625 8.625V6.75C3.625 6.40625 3.7474 6.11198 3.99219 5.86719C4.23698 5.6224 4.53125 5.5 4.875 5.5H7.375V4.59375C7.1875 4.46875 7.03646 4.31771 6.92188 4.14062C6.80729 3.96354 6.75 3.75 6.75 3.5C6.75 3.34375 6.78125 3.1901 6.84375 3.03906C6.90625 2.88802 7 2.75 7.125 2.625L8 1.75L8.875 2.625C9 2.75 9.09375 2.88802 9.15625 3.03906C9.21875 3.1901 9.25 3.34375 9.25 3.5C9.25 3.75 9.19271 3.96354 9.07812 4.14062C8.96354 4.31771 8.8125 4.46875 8.625 4.59375V5.5H11.125C11.4688 5.5 11.763 5.6224 12.0078 5.86719C12.2526 6.11198 12.375 6.40625 12.375 6.75V8.625H3.625Z" fill="white"/>
</g>
</svg>
