<svg width="350" height="125" viewBox="0 0 350 125" fill="none" xmlns="http://www.w3.org/2000/svg">
<path d="M287.52 89.55C286.995 89.55 286.23 89.42 285.215 89.16C284.2 88.9 283.3 88.505 282.515 87.985C281.73 87.46 281.34 86.875 281.34 86.22C281.34 85.175 281.815 83.555 282.76 81.365C283.705 79.175 284.935 76.655 286.44 73.81C287.945 70.965 289.61 68.025 291.445 64.98C293.275 61.94 295.09 59.015 296.89 56.2C298.685 53.39 300.34 50.935 301.845 48.845C303.35 46.755 304.495 45.25 305.28 44.335C305.345 44.205 305.44 44.155 305.575 44.19C305.705 44.225 305.805 44.24 305.87 44.24C306.13 44.24 306.72 44.325 307.635 44.485C308.55 44.65 309.435 44.875 310.285 45.17C311.135 45.465 311.56 45.775 311.56 46.1C311.56 46.23 311.51 46.33 311.415 46.395C311.315 46.46 311.2 46.56 311.07 46.69C310.155 47.735 309.27 48.85 308.42 50.025C307.57 51.2 306.685 52.38 305.77 53.555C300.67 60.485 295.96 67.645 291.645 75.035C293.15 72.945 294.735 70.93 296.4 69C298.07 67.07 299.88 65.29 301.845 63.655C302.435 63.13 303.3 62.445 304.445 61.595C305.59 60.745 306.52 60.32 307.24 60.32C307.895 60.32 308.645 60.565 309.495 61.055C310.345 61.545 311.115 62.15 311.8 62.87C312.485 63.59 312.83 64.275 312.83 64.93C312.83 65.455 312.745 65.96 312.585 66.45C312.42 66.94 312.21 67.45 311.95 67.97C310.51 71.11 308.55 74.07 306.065 76.845C303.58 79.625 300.815 82.075 297.775 84.2C294.735 86.325 291.58 88.04 288.31 89.35C288.18 89.415 288.05 89.465 287.92 89.495C287.78 89.535 287.65 89.55 287.52 89.55ZM287.42 85.825C287.55 85.825 287.715 85.795 287.91 85.725C288.105 85.66 288.27 85.595 288.4 85.53C292.585 83.305 296.36 80.43 299.73 76.9C303.095 73.37 305.795 69.51 307.82 65.325C307.95 65.065 308.065 64.785 308.165 64.49C308.265 64.195 308.31 63.92 308.31 63.655C308.31 63.2 308.08 62.97 307.625 62.97C306.51 62.97 305.09 63.56 303.36 64.735C301.625 65.91 299.81 67.415 297.915 69.245C296.02 71.075 294.22 73.02 292.52 75.08C290.82 77.14 289.445 79.07 288.4 80.865C287.355 82.665 286.83 84.085 286.83 85.13C286.83 85.595 287.03 85.825 287.42 85.825Z" fill="#2CBFD3"/>
<path d="M317.825 89.16C315.995 89.16 314.23 88.705 312.53 87.785C310.83 86.87 309.98 85.365 309.98 83.275C309.98 83.015 309.995 82.77 310.03 82.54C310.06 82.31 310.11 82.065 310.175 81.805C310.7 79.585 311.66 77.39 313.07 75.235C314.475 73.075 316.175 71.05 318.17 69.155C320.165 67.26 322.255 65.575 324.45 64.105C326.64 62.635 328.75 61.505 330.775 60.72C330.97 60.59 331.165 60.49 331.365 60.425C331.56 60.36 331.79 60.325 332.05 60.325C332.64 60.325 333.13 60.635 333.52 61.255C333.91 61.875 334.205 62.58 334.405 63.365C334.6 64.15 334.7 64.77 334.7 65.23C334.7 66.405 334.355 67.6 333.67 68.81C332.985 70.02 332.215 71.015 331.365 71.8C331.755 71.8 332.15 71.815 332.54 71.85C332.93 71.885 333.325 71.9 333.715 71.9C333.845 71.9 333.91 71.965 333.91 72.095C333.91 72.16 333.845 72.225 333.715 72.29C333.585 72.355 333.455 72.42 333.32 72.485L330.38 72.78C328.55 72.975 326.655 73.27 324.69 73.665C322.73 74.055 320.865 74.58 319.1 75.235C318.25 76.41 317.4 77.885 316.55 79.65C315.7 81.415 315.275 83.05 315.275 84.555C315.275 85.405 315.47 86.14 315.865 86.76C316.255 87.38 316.945 87.69 317.925 87.69C318.515 87.69 319.115 87.575 319.74 87.345C320.36 87.115 320.93 86.87 321.455 86.61C324.595 85.04 327.405 83.16 329.89 80.97C332.375 78.78 334.795 76.41 337.15 73.86C337.28 73.73 337.38 73.665 337.445 73.665C337.575 73.665 337.64 73.73 337.64 73.86C337.64 74.055 337.575 74.27 337.445 74.5C337.315 74.73 337.185 74.91 337.055 75.04C335.29 77.265 333.26 79.505 330.975 81.76C328.685 84.015 326.365 85.895 324.01 87.4C322.175 88.57 320.115 89.16 317.825 89.16ZM321.555 72.29C323.06 72.16 324.56 72.045 326.065 71.945C327.57 71.845 329.07 71.8 330.575 71.8C330.965 71.275 331.31 70.575 331.605 69.69C331.9 68.805 332.045 68.04 332.045 67.385C332.045 67.06 331.98 66.715 331.85 66.355C331.72 65.995 331.425 65.815 330.965 65.815H330.67C329.885 66.075 328.885 66.6 327.68 67.385C326.47 68.17 325.31 69.02 324.2 69.935C323.09 70.85 322.205 71.635 321.555 72.29Z" fill="#2CBFD3"/>
<path d="M166.99 49.175H198.785L196.865 60.175H164.97L159.82 89.55H145.89L158.205 19.905H207.36L205.44 30.805H170.215L166.99 49.175Z" fill="#515E66"/>
<path d="M205.545 89.55L217.86 19.905H231.79L219.475 89.55H205.545Z" fill="#515E66"/>
<path d="M276.505 30.805L266.11 89.55H252.18L262.575 30.805H238.855L240.875 19.905H302.045L300.025 30.805H276.505Z" fill="#515E66"/>
<path d="M73.665 39.485C76.235 35.365 79.115 30.31 81.64 25.135C84.17 19.99 86.345 14.755 87.555 10.365C91.175 10.845 95.025 11.33 99.035 11.87C97.75 16.35 95.415 22.07 92.655 27.815C89.89 33.53 86.78 39.245 83.86 43.94C82.575 43.28 81.33 42.675 80.045 42.105C77.865 41.11 75.725 40.235 73.665 39.485Z" fill="#2CBFD3"/>
<path d="M51.45 61.355C55.38 58.59 59.31 55.31 63.2 51.67C66.08 52.905 69.115 54.38 72.46 56.155C72.77 56.335 73.1199 56.515 73.435 56.725C67.52 62.44 61.375 67.435 55.305 71.44C46.355 77.395 37.76 81.125 30.445 81.91C23.44 82.66 17.605 80.795 13.48 75.835C10.875 72.735 8.96496 68.43 7.95496 62.775C9.04496 64.73 11.105 70.18 16.475 72.7C22.345 75.465 32.695 74.895 51.45 61.355Z" fill="#515E66"/>
<path d="M20.71 58.1051C23.745 51.6051 27.285 46.8251 31.215 43.4251C37.245 38.2201 44.365 36.1151 52.265 36.6251C63.935 37.3751 78.335 44.0251 93.545 55.8201C112.455 70.4401 133.31 93.4251 149.38 120.895C149.3 120.895 149.225 120.925 149.185 120.925C121.445 92.0751 88.53 63.8551 64.56 52.3651C46.505 43.6951 31.255 43.3351 20.71 58.1051Z" fill="#515E66"/>
<path fill-rule="evenodd" clip-rule="evenodd" d="M69.15 13.7898C73.78 12.7998 77.595 16.3448 77.165 21.9448C76.775 27.6598 72.34 32.8648 67.475 33.3748C62.885 33.8848 59.73 29.9448 60.275 24.7098C60.785 19.5948 64.56 14.7848 69.15 13.7898Z" fill="#515E66"/>
</svg>
