<svg width="20" height="20" viewBox="0 0 20 20" fill="none" xmlns="http://www.w3.org/2000/svg">
<rect width="20" height="20" rx="4" fill="#F29A4C"/>
<path d="M6.325 7.8855C6.82083 7.623 7.33378 7.42369 7.86383 7.28758C8.39389 7.15147 8.93581 7.08341 9.48958 7.08342C9.78125 7.08342 10.0706 7.10286 10.3576 7.14175C10.6446 7.18064 10.9289 7.23897 11.2104 7.31675C11.6965 7.45286 12.0685 7.54522 12.3263 7.59383C12.5842 7.64244 12.8587 7.66675 13.15 7.66675H13.6896L13.9375 5.33341H6.0625L6.325 7.8855ZM7.06875 15.8334C6.76736 15.8334 6.50739 15.7362 6.28883 15.5417C6.07028 15.3473 5.94622 15.0994 5.91667 14.798L4.75 4.16675H15.25L14.0833 14.798C14.0542 15.0994 13.9301 15.3473 13.7112 15.5417C13.4922 15.7362 13.2322 15.8334 12.9312 15.8334H7.06875Z" fill="white"/>
</svg>
