<svg width="350" height="22" viewBox="0 0 350 22" fill="none" xmlns="http://www.w3.org/2000/svg">
<rect width="20" height="20" rx="4" fill="#386641"/>
<mask id="mask0_105_3932" style="mask-type:alpha" maskUnits="userSpaceOnUse" x="2" y="2" width="16" height="16">
<rect x="2.5" y="2.5" width="15" height="15" fill="#D9D9D9"/>
</mask>
<g mask="url(#mask0_105_3932)">
<path d="M5 16.25C4.82292 16.25 4.67448 16.1901 4.55469 16.0703C4.4349 15.9505 4.375 15.8021 4.375 15.625V13.125C4.375 12.7812 4.4974 12.487 4.74219 12.2422C4.98698 11.9974 5.28125 11.875 5.625 11.875H14.375C14.7188 11.875 15.013 11.9974 15.2578 12.2422C15.5026 12.487 15.625 12.7812 15.625 13.125V15.625C15.625 15.8021 15.5651 15.9505 15.4453 16.0703C15.3255 16.1901 15.1771 16.25 15 16.25H5ZM5.625 10.625V8.75C5.625 8.40625 5.7474 8.11198 5.99219 7.86719C6.23698 7.6224 6.53125 7.5 6.875 7.5H9.375V6.59375C9.1875 6.46875 9.03646 6.31771 8.92188 6.14062C8.80729 5.96354 8.75 5.75 8.75 5.5C8.75 5.34375 8.78125 5.1901 8.84375 5.03906C8.90625 4.88802 9 4.75 9.125 4.625L10 3.75L10.875 4.625C11 4.75 11.0938 4.88802 11.1562 5.03906C11.2188 5.1901 11.25 5.34375 11.25 5.5C11.25 5.75 11.1927 5.96354 11.0781 6.14062C10.9635 6.31771 10.8125 6.46875 10.625 6.59375V7.5H13.125C13.4688 7.5 13.763 7.6224 14.0078 7.86719C14.2526 8.11198 14.375 8.40625 14.375 8.75V10.625H5.625Z" fill="white"/>
</g>
<path d="M32.48 15C32.416 15 32.36 14.976 32.312 14.928C32.264 14.88 32.24 14.824 32.24 14.76C32.24 14.72 32.244 14.676 32.252 14.628L35.228 6.864C35.26 6.784 35.304 6.72 35.36 6.672C35.416 6.624 35.5 6.6 35.612 6.6H36.428C36.532 6.6 36.612 6.624 36.668 6.672C36.732 6.72 36.78 6.784 36.812 6.864L39.776 14.628C39.792 14.676 39.8 14.72 39.8 14.76C39.8 14.824 39.776 14.88 39.728 14.928C39.68 14.976 39.624 15 39.56 15H38.948C38.852 15 38.78 14.976 38.732 14.928C38.692 14.88 38.664 14.836 38.648 14.796L37.988 13.092H34.052L33.392 14.796C33.384 14.836 33.356 14.88 33.308 14.928C33.26 14.976 33.188 15 33.092 15H32.48ZM34.4 12.06H37.64L36.02 7.8L34.4 12.06ZM42.7241 15C42.6041 15 42.5081 14.972 42.4361 14.916C42.3721 14.86 42.3201 14.788 42.2801 14.7L40.0601 9.132C40.0441 9.092 40.0361 9.052 40.0361 9.012C40.0361 8.94 40.0601 8.88 40.1081 8.832C40.1561 8.784 40.2161 8.76 40.2881 8.76H40.8641C40.9521 8.76 41.0201 8.784 41.0681 8.832C41.1161 8.88 41.1441 8.924 41.1521 8.964L42.9881 13.692L44.8121 8.964C44.8281 8.924 44.8561 8.88 44.8961 8.832C44.9441 8.784 45.0121 8.76 45.1001 8.76H45.6881C45.7521 8.76 45.8081 8.784 45.8561 8.832C45.9121 8.88 45.9401 8.94 45.9401 9.012C45.9401 9.052 45.9321 9.092 45.9161 9.132L43.6841 14.7C43.6521 14.788 43.6001 14.86 43.5281 14.916C43.4641 14.972 43.3681 15 43.2401 15H42.7241ZM49.5299 15.12C48.9219 15.12 48.4139 15.004 48.0059 14.772C47.5979 14.54 47.2859 14.22 47.0699 13.812C46.8539 13.396 46.7339 12.924 46.7099 12.396C46.7019 12.26 46.6979 12.088 46.6979 11.88C46.6979 11.664 46.7019 11.492 46.7099 11.364C46.7339 10.828 46.8539 10.356 47.0699 9.948C47.2939 9.54 47.6099 9.22 48.0179 8.988C48.4259 8.756 48.9299 8.64 49.5299 8.64C50.1299 8.64 50.6339 8.756 51.0419 8.988C51.4499 9.22 51.7619 9.54 51.9779 9.948C52.2019 10.356 52.3259 10.828 52.3499 11.364C52.3579 11.492 52.3619 11.664 52.3619 11.88C52.3619 12.088 52.3579 12.26 52.3499 12.396C52.3259 12.924 52.2059 13.396 51.9899 13.812C51.7739 14.22 51.4619 14.54 51.0539 14.772C50.6459 15.004 50.1379 15.12 49.5299 15.12ZM49.5299 14.196C50.0259 14.196 50.4219 14.04 50.7179 13.728C51.0139 13.408 51.1739 12.944 51.1979 12.336C51.2059 12.216 51.2099 12.064 51.2099 11.88C51.2099 11.696 51.2059 11.544 51.1979 11.424C51.1739 10.816 51.0139 10.356 50.7179 10.044C50.4219 9.724 50.0259 9.564 49.5299 9.564C49.0339 9.564 48.6339 9.724 48.3299 10.044C48.0339 10.356 47.8779 10.816 47.8619 11.424C47.8539 11.544 47.8499 11.696 47.8499 11.88C47.8499 12.064 47.8539 12.216 47.8619 12.336C47.8779 12.944 48.0339 13.408 48.3299 13.728C48.6339 14.04 49.0339 14.196 49.5299 14.196ZM54.1406 15C54.0606 15 53.9926 14.976 53.9366 14.928C53.8886 14.872 53.8646 14.804 53.8646 14.724V9.036C53.8646 8.956 53.8886 8.892 53.9366 8.844C53.9926 8.788 54.0606 8.76 54.1406 8.76H54.7166C54.7966 8.76 54.8606 8.788 54.9086 8.844C54.9566 8.892 54.9806 8.956 54.9806 9.036V14.724C54.9806 14.804 54.9566 14.872 54.9086 14.928C54.8606 14.976 54.7966 15 54.7166 15H54.1406ZM54.0446 7.596C53.9646 7.596 53.8966 7.572 53.8406 7.524C53.7926 7.468 53.7686 7.4 53.7686 7.32V6.672C53.7686 6.592 53.7926 6.528 53.8406 6.48C53.8966 6.424 53.9646 6.396 54.0446 6.396H54.8006C54.8806 6.396 54.9446 6.424 54.9926 6.48C55.0486 6.528 55.0766 6.592 55.0766 6.672V7.32C55.0766 7.4 55.0486 7.468 54.9926 7.524C54.9446 7.572 54.8806 7.596 54.8006 7.596H54.0446ZM59.0508 15.12C58.6108 15.12 58.2308 15.044 57.9108 14.892C57.5908 14.732 57.3268 14.52 57.1188 14.256C56.9188 13.984 56.7668 13.676 56.6628 13.332C56.5668 12.988 56.5108 12.624 56.4948 12.24C56.4868 12.112 56.4828 11.992 56.4828 11.88C56.4828 11.768 56.4868 11.648 56.4948 11.52C56.5108 11.144 56.5668 10.784 56.6628 10.44C56.7668 10.096 56.9188 9.788 57.1188 9.516C57.3268 9.244 57.5908 9.032 57.9108 8.88C58.2308 8.72 58.6108 8.64 59.0508 8.64C59.5228 8.64 59.9148 8.724 60.2268 8.892C60.5388 9.06 60.7948 9.268 60.9948 9.516V6.756C60.9948 6.676 61.0188 6.612 61.0668 6.564C61.1228 6.508 61.1908 6.48 61.2708 6.48H61.8468C61.9268 6.48 61.9908 6.508 62.0388 6.564C62.0948 6.612 62.1228 6.676 62.1228 6.756V14.724C62.1228 14.804 62.0948 14.872 62.0388 14.928C61.9908 14.976 61.9268 15 61.8468 15H61.3068C61.2188 15 61.1508 14.976 61.1028 14.928C61.0548 14.872 61.0308 14.804 61.0308 14.724V14.22C60.8308 14.476 60.5708 14.692 60.2508 14.868C59.9308 15.036 59.5308 15.12 59.0508 15.12ZM59.3028 14.148C59.7028 14.148 60.0228 14.056 60.2628 13.872C60.5028 13.688 60.6828 13.456 60.8028 13.176C60.9228 12.888 60.9868 12.596 60.9948 12.3C61.0028 12.172 61.0068 12.02 61.0068 11.844C61.0068 11.66 61.0028 11.504 60.9948 11.376C60.9868 11.096 60.9188 10.82 60.7908 10.548C60.6708 10.276 60.4868 10.052 60.2388 9.876C59.9988 9.7 59.6868 9.612 59.3028 9.612C58.8948 9.612 58.5708 9.704 58.3308 9.888C58.0908 10.064 57.9188 10.3 57.8148 10.596C57.7108 10.884 57.6508 11.196 57.6348 11.532C57.6268 11.764 57.6268 11.996 57.6348 12.228C57.6508 12.564 57.7108 12.88 57.8148 13.176C57.9188 13.464 58.0908 13.7 58.3308 13.884C58.5708 14.06 58.8948 14.148 59.3028 14.148ZM68.5889 15.12C68.1889 15.12 67.8249 15.04 67.4969 14.88C67.1689 14.72 66.9049 14.504 66.7049 14.232C66.5049 13.96 66.4049 13.652 66.4049 13.308C66.4049 12.756 66.6289 12.316 67.0769 11.988C67.5249 11.66 68.1089 11.444 68.8289 11.34L70.6169 11.088V10.74C70.6169 10.356 70.5049 10.056 70.2809 9.84C70.0649 9.624 69.7089 9.516 69.2129 9.516C68.8529 9.516 68.5609 9.588 68.3369 9.732C68.1209 9.876 67.9689 10.06 67.8809 10.284C67.8329 10.404 67.7489 10.464 67.6289 10.464H67.0889C67.0009 10.464 66.9329 10.44 66.8849 10.392C66.8449 10.336 66.8249 10.272 66.8249 10.2C66.8249 10.08 66.8689 9.932 66.9569 9.756C67.0529 9.58 67.1969 9.408 67.3889 9.24C67.5809 9.072 67.8249 8.932 68.1209 8.82C68.4249 8.7 68.7929 8.64 69.2249 8.64C69.7049 8.64 70.1089 8.704 70.4369 8.832C70.7649 8.952 71.0209 9.116 71.2049 9.324C71.3969 9.532 71.5329 9.768 71.6129 10.032C71.7009 10.296 71.7449 10.564 71.7449 10.836V14.724C71.7449 14.804 71.7169 14.872 71.6609 14.928C71.6129 14.976 71.5489 15 71.4689 15H70.9169C70.8289 15 70.7609 14.976 70.7129 14.928C70.6649 14.872 70.6409 14.804 70.6409 14.724V14.208C70.5369 14.352 70.3969 14.496 70.2209 14.64C70.0449 14.776 69.8249 14.892 69.5609 14.988C69.2969 15.076 68.9729 15.12 68.5889 15.12ZM68.8409 14.22C69.1689 14.22 69.4689 14.152 69.7409 14.016C70.0129 13.872 70.2249 13.652 70.3769 13.356C70.5369 13.06 70.6169 12.688 70.6169 12.24V11.904L69.2249 12.108C68.6569 12.188 68.2289 12.324 67.9409 12.516C67.6529 12.7 67.5089 12.936 67.5089 13.224C67.5089 13.448 67.5729 13.636 67.7009 13.788C67.8369 13.932 68.0049 14.04 68.2049 14.112C68.4129 14.184 68.6249 14.22 68.8409 14.22ZM73.758 15C73.678 15 73.61 14.976 73.554 14.928C73.506 14.872 73.482 14.804 73.482 14.724V6.756C73.482 6.676 73.506 6.612 73.554 6.564C73.61 6.508 73.678 6.48 73.758 6.48H74.322C74.41 6.48 74.478 6.508 74.526 6.564C74.574 6.612 74.598 6.676 74.598 6.756V14.724C74.598 14.804 74.574 14.872 74.526 14.928C74.478 14.976 74.41 15 74.322 15H73.758ZM76.676 15C76.596 15 76.528 14.976 76.472 14.928C76.424 14.872 76.4 14.804 76.4 14.724V6.756C76.4 6.676 76.424 6.612 76.472 6.564C76.528 6.508 76.596 6.48 76.676 6.48H77.24C77.328 6.48 77.396 6.508 77.444 6.564C77.492 6.612 77.516 6.676 77.516 6.756V14.724C77.516 14.804 77.492 14.872 77.444 14.928C77.396 14.976 77.328 15 77.24 15H76.676ZM82.5354 15C82.4554 15 82.3874 14.976 82.3314 14.928C82.2834 14.872 82.2594 14.804 82.2594 14.724V6.756C82.2594 6.676 82.2834 6.612 82.3314 6.564C82.3874 6.508 82.4554 6.48 82.5354 6.48H83.0994C83.1794 6.48 83.2434 6.508 83.2914 6.564C83.3474 6.612 83.3754 6.676 83.3754 6.756V10.932L85.7394 8.964C85.8354 8.884 85.9074 8.832 85.9554 8.808C86.0114 8.776 86.0994 8.76 86.2194 8.76H86.8554C86.9274 8.76 86.9874 8.784 87.0354 8.832C87.0834 8.88 87.1074 8.94 87.1074 9.012C87.1074 9.044 87.0954 9.08 87.0714 9.12C87.0554 9.16 87.0194 9.2 86.9634 9.24L84.1914 11.544L87.2634 14.532C87.3594 14.612 87.4074 14.684 87.4074 14.748C87.4074 14.82 87.3834 14.88 87.3354 14.928C87.2874 14.976 87.2274 15 87.1554 15H86.5314C86.4114 15 86.3234 14.988 86.2674 14.964C86.2114 14.932 86.1394 14.876 86.0514 14.796L83.3754 12.24V14.724C83.3754 14.804 83.3474 14.872 83.2914 14.928C83.2434 14.976 83.1794 15 83.0994 15H82.5354ZM88.7109 15C88.6309 15 88.5629 14.976 88.5069 14.928C88.4589 14.872 88.4349 14.804 88.4349 14.724V9.036C88.4349 8.956 88.4589 8.892 88.5069 8.844C88.5629 8.788 88.6309 8.76 88.7109 8.76H89.2869C89.3669 8.76 89.4309 8.788 89.4789 8.844C89.5269 8.892 89.5509 8.956 89.5509 9.036V14.724C89.5509 14.804 89.5269 14.872 89.4789 14.928C89.4309 14.976 89.3669 15 89.2869 15H88.7109ZM88.6149 7.596C88.5349 7.596 88.4669 7.572 88.4109 7.524C88.3629 7.468 88.3389 7.4 88.3389 7.32V6.672C88.3389 6.592 88.3629 6.528 88.4109 6.48C88.4669 6.424 88.5349 6.396 88.6149 6.396H89.3709C89.4509 6.396 89.5149 6.424 89.5629 6.48C89.6189 6.528 89.6469 6.592 89.6469 6.672V7.32C89.6469 7.4 89.6189 7.468 89.5629 7.524C89.5149 7.572 89.4509 7.596 89.3709 7.596H88.6149ZM91.7343 15C91.6543 15 91.5863 14.976 91.5303 14.928C91.4823 14.872 91.4583 14.804 91.4583 14.724V9.036C91.4583 8.956 91.4823 8.892 91.5303 8.844C91.5863 8.788 91.6543 8.76 91.7343 8.76H92.2983C92.3783 8.76 92.4423 8.788 92.4903 8.844C92.5463 8.892 92.5743 8.956 92.5743 9.036V9.564C92.7823 9.292 93.0423 9.072 93.3543 8.904C93.6743 8.728 94.0823 8.64 94.5783 8.64C95.0983 8.64 95.5383 8.756 95.8983 8.988C96.2663 9.212 96.5423 9.528 96.7263 9.936C96.9103 10.336 97.0023 10.804 97.0023 11.34V14.724C97.0023 14.804 96.9783 14.872 96.9303 14.928C96.8823 14.976 96.8183 15 96.7383 15H96.1383C96.0583 15 95.9903 14.976 95.9343 14.928C95.8863 14.872 95.8623 14.804 95.8623 14.724V11.4C95.8623 10.84 95.7263 10.404 95.4543 10.092C95.1823 9.772 94.7823 9.612 94.2543 9.612C93.7583 9.612 93.3583 9.772 93.0543 10.092C92.7583 10.404 92.6103 10.84 92.6103 11.4V14.724C92.6103 14.804 92.5823 14.872 92.5263 14.928C92.4783 14.976 92.4143 15 92.3343 15H91.7343ZM101.016 15.12C100.576 15.12 100.196 15.044 99.8757 14.892C99.5557 14.732 99.2917 14.52 99.0837 14.256C98.8837 13.984 98.7317 13.676 98.6277 13.332C98.5317 12.988 98.4757 12.624 98.4597 12.24C98.4517 12.112 98.4477 11.992 98.4477 11.88C98.4477 11.768 98.4517 11.648 98.4597 11.52C98.4757 11.144 98.5317 10.784 98.6277 10.44C98.7317 10.096 98.8837 9.788 99.0837 9.516C99.2917 9.244 99.5557 9.032 99.8757 8.88C100.196 8.72 100.576 8.64 101.016 8.64C101.488 8.64 101.88 8.724 102.192 8.892C102.504 9.06 102.76 9.268 102.96 9.516V6.756C102.96 6.676 102.984 6.612 103.032 6.564C103.088 6.508 103.156 6.48 103.236 6.48H103.812C103.892 6.48 103.956 6.508 104.004 6.564C104.06 6.612 104.088 6.676 104.088 6.756V14.724C104.088 14.804 104.06 14.872 104.004 14.928C103.956 14.976 103.892 15 103.812 15H103.272C103.184 15 103.116 14.976 103.068 14.928C103.02 14.872 102.996 14.804 102.996 14.724V14.22C102.796 14.476 102.536 14.692 102.216 14.868C101.896 15.036 101.496 15.12 101.016 15.12ZM101.268 14.148C101.668 14.148 101.988 14.056 102.228 13.872C102.468 13.688 102.648 13.456 102.768 13.176C102.888 12.888 102.952 12.596 102.96 12.3C102.968 12.172 102.972 12.02 102.972 11.844C102.972 11.66 102.968 11.504 102.96 11.376C102.952 11.096 102.884 10.82 102.756 10.548C102.636 10.276 102.452 10.052 102.204 9.876C101.964 9.7 101.652 9.612 101.268 9.612C100.86 9.612 100.536 9.704 100.296 9.888C100.056 10.064 99.8837 10.3 99.7797 10.596C99.6757 10.884 99.6157 11.196 99.5997 11.532C99.5917 11.764 99.5917 11.996 99.5997 12.228C99.6157 12.564 99.6757 12.88 99.7797 13.176C99.8837 13.464 100.056 13.7 100.296 13.884C100.536 14.06 100.86 14.148 101.268 14.148ZM108.032 15.12C107.584 15.12 107.2 15.064 106.88 14.952C106.56 14.84 106.3 14.704 106.1 14.544C105.9 14.384 105.748 14.224 105.644 14.064C105.548 13.904 105.496 13.776 105.488 13.68C105.48 13.592 105.508 13.524 105.572 13.476C105.636 13.428 105.7 13.404 105.764 13.404H106.292C106.34 13.404 106.376 13.412 106.4 13.428C106.432 13.436 106.472 13.468 106.52 13.524C106.624 13.636 106.74 13.748 106.868 13.86C106.996 13.972 107.152 14.064 107.336 14.136C107.528 14.208 107.764 14.244 108.044 14.244C108.452 14.244 108.788 14.168 109.052 14.016C109.316 13.856 109.448 13.624 109.448 13.32C109.448 13.12 109.392 12.96 109.28 12.84C109.176 12.72 108.984 12.612 108.704 12.516C108.432 12.42 108.056 12.32 107.576 12.216C107.096 12.104 106.716 11.968 106.436 11.808C106.156 11.64 105.956 11.444 105.836 11.22C105.716 10.988 105.656 10.728 105.656 10.44C105.656 10.144 105.744 9.86 105.92 9.588C106.096 9.308 106.352 9.08 106.688 8.904C107.032 8.728 107.46 8.64 107.972 8.64C108.388 8.64 108.744 8.692 109.04 8.796C109.336 8.9 109.58 9.032 109.772 9.192C109.964 9.344 110.108 9.496 110.204 9.648C110.3 9.8 110.352 9.928 110.36 10.032C110.368 10.112 110.344 10.18 110.288 10.236C110.232 10.284 110.168 10.308 110.096 10.308H109.592C109.536 10.308 109.488 10.296 109.448 10.272C109.416 10.248 109.384 10.22 109.352 10.188C109.272 10.084 109.176 9.98 109.064 9.876C108.96 9.772 108.82 9.688 108.644 9.624C108.476 9.552 108.252 9.516 107.972 9.516C107.572 9.516 107.272 9.6 107.072 9.768C106.872 9.936 106.772 10.148 106.772 10.404C106.772 10.556 106.816 10.692 106.904 10.812C106.992 10.932 107.16 11.04 107.408 11.136C107.656 11.232 108.024 11.336 108.512 11.448C109.04 11.552 109.456 11.692 109.76 11.868C110.064 12.044 110.28 12.248 110.408 12.48C110.536 12.712 110.6 12.98 110.6 13.284C110.6 13.62 110.5 13.928 110.3 14.208C110.108 14.488 109.82 14.712 109.436 14.88C109.06 15.04 108.592 15.12 108.032 15.12ZM117.487 15.12C116.879 15.12 116.371 15.004 115.963 14.772C115.555 14.54 115.243 14.22 115.027 13.812C114.811 13.396 114.691 12.924 114.667 12.396C114.659 12.26 114.655 12.088 114.655 11.88C114.655 11.664 114.659 11.492 114.667 11.364C114.691 10.828 114.811 10.356 115.027 9.948C115.251 9.54 115.567 9.22 115.975 8.988C116.383 8.756 116.887 8.64 117.487 8.64C118.087 8.64 118.591 8.756 118.999 8.988C119.407 9.22 119.719 9.54 119.935 9.948C120.159 10.356 120.283 10.828 120.307 11.364C120.315 11.492 120.319 11.664 120.319 11.88C120.319 12.088 120.315 12.26 120.307 12.396C120.283 12.924 120.163 13.396 119.947 13.812C119.731 14.22 119.419 14.54 119.011 14.772C118.603 15.004 118.095 15.12 117.487 15.12ZM117.487 14.196C117.983 14.196 118.379 14.04 118.675 13.728C118.971 13.408 119.131 12.944 119.155 12.336C119.163 12.216 119.167 12.064 119.167 11.88C119.167 11.696 119.163 11.544 119.155 11.424C119.131 10.816 118.971 10.356 118.675 10.044C118.379 9.724 117.983 9.564 117.487 9.564C116.991 9.564 116.591 9.724 116.287 10.044C115.991 10.356 115.835 10.816 115.819 11.424C115.811 11.544 115.807 11.696 115.807 11.88C115.807 12.064 115.811 12.216 115.819 12.336C115.835 12.944 115.991 13.408 116.287 13.728C116.591 14.04 116.991 14.196 117.487 14.196ZM122.651 15C122.571 15 122.503 14.976 122.447 14.928C122.399 14.872 122.375 14.804 122.375 14.724V9.72H121.355C121.275 9.72 121.207 9.696 121.151 9.648C121.103 9.592 121.079 9.524 121.079 9.444V9.036C121.079 8.956 121.103 8.892 121.151 8.844C121.207 8.788 121.275 8.76 121.355 8.76H122.375V8.16C122.375 7.752 122.443 7.396 122.579 7.092C122.715 6.78 122.931 6.54 123.227 6.372C123.531 6.204 123.935 6.12 124.439 6.12H125.159C125.239 6.12 125.303 6.148 125.351 6.204C125.399 6.252 125.423 6.316 125.423 6.396V6.804C125.423 6.884 125.399 6.952 125.351 7.008C125.303 7.056 125.239 7.08 125.159 7.08H124.463C124.087 7.08 123.831 7.18 123.695 7.38C123.559 7.572 123.491 7.852 123.491 8.22V8.76H125.039C125.119 8.76 125.183 8.788 125.231 8.844C125.279 8.892 125.303 8.956 125.303 9.036V9.444C125.303 9.524 125.279 9.592 125.231 9.648C125.183 9.696 125.119 9.72 125.039 9.72H123.491V14.724C123.491 14.804 123.463 14.872 123.407 14.928C123.359 14.976 123.295 15 123.215 15H122.651ZM131.2 15.12C130.752 15.12 130.368 15.064 130.048 14.952C129.728 14.84 129.468 14.704 129.268 14.544C129.068 14.384 128.916 14.224 128.812 14.064C128.716 13.904 128.664 13.776 128.656 13.68C128.648 13.592 128.676 13.524 128.74 13.476C128.804 13.428 128.868 13.404 128.932 13.404H129.46C129.508 13.404 129.544 13.412 129.568 13.428C129.6 13.436 129.64 13.468 129.688 13.524C129.792 13.636 129.908 13.748 130.036 13.86C130.164 13.972 130.32 14.064 130.504 14.136C130.696 14.208 130.932 14.244 131.212 14.244C131.62 14.244 131.956 14.168 132.22 14.016C132.484 13.856 132.616 13.624 132.616 13.32C132.616 13.12 132.56 12.96 132.448 12.84C132.344 12.72 132.152 12.612 131.872 12.516C131.6 12.42 131.224 12.32 130.744 12.216C130.264 12.104 129.884 11.968 129.604 11.808C129.324 11.64 129.124 11.444 129.004 11.22C128.884 10.988 128.824 10.728 128.824 10.44C128.824 10.144 128.912 9.86 129.088 9.588C129.264 9.308 129.52 9.08 129.856 8.904C130.2 8.728 130.628 8.64 131.14 8.64C131.556 8.64 131.912 8.692 132.208 8.796C132.504 8.9 132.748 9.032 132.94 9.192C133.132 9.344 133.276 9.496 133.372 9.648C133.468 9.8 133.52 9.928 133.528 10.032C133.536 10.112 133.512 10.18 133.456 10.236C133.4 10.284 133.336 10.308 133.264 10.308H132.76C132.704 10.308 132.656 10.296 132.616 10.272C132.584 10.248 132.552 10.22 132.52 10.188C132.44 10.084 132.344 9.98 132.232 9.876C132.128 9.772 131.988 9.688 131.812 9.624C131.644 9.552 131.42 9.516 131.14 9.516C130.74 9.516 130.44 9.6 130.24 9.768C130.04 9.936 129.94 10.148 129.94 10.404C129.94 10.556 129.984 10.692 130.072 10.812C130.16 10.932 130.328 11.04 130.576 11.136C130.824 11.232 131.192 11.336 131.68 11.448C132.208 11.552 132.624 11.692 132.928 11.868C133.232 12.044 133.448 12.248 133.576 12.48C133.704 12.712 133.768 12.98 133.768 13.284C133.768 13.62 133.668 13.928 133.468 14.208C133.276 14.488 132.988 14.712 132.604 14.88C132.228 15.04 131.76 15.12 131.2 15.12ZM136.649 15C136.545 15 136.465 14.976 136.409 14.928C136.353 14.872 136.305 14.796 136.265 14.7L134.561 9.132C134.545 9.092 134.537 9.052 134.537 9.012C134.537 8.94 134.561 8.88 134.609 8.832C134.665 8.784 134.725 8.76 134.789 8.76H135.317C135.405 8.76 135.473 8.784 135.521 8.832C135.569 8.88 135.601 8.924 135.617 8.964L136.949 13.488L138.377 9.012C138.393 8.956 138.425 8.9 138.473 8.844C138.529 8.788 138.609 8.76 138.713 8.76H139.121C139.225 8.76 139.305 8.788 139.361 8.844C139.417 8.9 139.449 8.956 139.457 9.012L140.885 13.488L142.217 8.964C142.225 8.924 142.253 8.88 142.301 8.832C142.349 8.784 142.417 8.76 142.505 8.76H143.033C143.105 8.76 143.165 8.784 143.213 8.832C143.261 8.88 143.285 8.94 143.285 9.012C143.285 9.052 143.277 9.092 143.261 9.132L141.557 14.7C141.533 14.796 141.489 14.872 141.425 14.928C141.369 14.976 141.285 15 141.173 15H140.705C140.601 15 140.513 14.976 140.441 14.928C140.377 14.872 140.333 14.796 140.309 14.7L138.917 10.404L137.525 14.7C137.493 14.796 137.445 14.872 137.381 14.928C137.317 14.976 137.229 15 137.117 15H136.649ZM146.935 15.12C146.111 15.12 145.455 14.868 144.967 14.364C144.479 13.852 144.211 13.156 144.163 12.276C144.155 12.172 144.151 12.04 144.151 11.88C144.151 11.712 144.155 11.576 144.163 11.472C144.195 10.904 144.327 10.408 144.559 9.984C144.791 9.552 145.107 9.22 145.507 8.988C145.915 8.756 146.391 8.64 146.935 8.64C147.543 8.64 148.051 8.768 148.459 9.024C148.875 9.28 149.191 9.644 149.407 10.116C149.623 10.588 149.73 11.14 149.73 11.772V11.976C149.73 12.064 149.703 12.132 149.647 12.18C149.599 12.228 149.535 12.252 149.455 12.252H145.303C145.303 12.26 145.303 12.276 145.303 12.3C145.303 12.324 145.303 12.344 145.303 12.36C145.319 12.688 145.391 12.996 145.519 13.284C145.647 13.564 145.831 13.792 146.071 13.968C146.311 14.144 146.599 14.232 146.935 14.232C147.223 14.232 147.463 14.188 147.655 14.1C147.847 14.012 148.003 13.916 148.123 13.812C148.243 13.7 148.323 13.616 148.363 13.56C148.435 13.456 148.491 13.396 148.531 13.38C148.571 13.356 148.635 13.344 148.723 13.344H149.299C149.379 13.344 149.443 13.368 149.491 13.416C149.547 13.456 149.571 13.516 149.562 13.596C149.555 13.716 149.491 13.864 149.371 14.04C149.251 14.208 149.079 14.376 148.855 14.544C148.631 14.712 148.359 14.852 148.039 14.964C147.719 15.068 147.351 15.12 146.935 15.12ZM145.303 11.424H148.591V11.388C148.591 11.028 148.523 10.708 148.387 10.428C148.259 10.148 148.071 9.928 147.823 9.768C147.575 9.6 147.279 9.516 146.935 9.516C146.591 9.516 146.295 9.6 146.047 9.768C145.807 9.928 145.623 10.148 145.495 10.428C145.367 10.708 145.303 11.028 145.303 11.388V11.424ZM153.649 15.12C152.825 15.12 152.169 14.868 151.681 14.364C151.193 13.852 150.925 13.156 150.877 12.276C150.869 12.172 150.865 12.04 150.865 11.88C150.865 11.712 150.869 11.576 150.877 11.472C150.909 10.904 151.041 10.408 151.273 9.984C151.505 9.552 151.821 9.22 152.221 8.988C152.629 8.756 153.105 8.64 153.649 8.64C154.257 8.64 154.765 8.768 155.173 9.024C155.589 9.28 155.905 9.644 156.121 10.116C156.337 10.588 156.445 11.14 156.445 11.772V11.976C156.445 12.064 156.417 12.132 156.361 12.18C156.313 12.228 156.249 12.252 156.169 12.252H152.017C152.017 12.26 152.017 12.276 152.017 12.3C152.017 12.324 152.017 12.344 152.017 12.36C152.033 12.688 152.105 12.996 152.233 13.284C152.361 13.564 152.545 13.792 152.785 13.968C153.025 14.144 153.313 14.232 153.649 14.232C153.937 14.232 154.177 14.188 154.369 14.1C154.561 14.012 154.717 13.916 154.837 13.812C154.957 13.7 155.037 13.616 155.077 13.56C155.149 13.456 155.205 13.396 155.245 13.38C155.285 13.356 155.349 13.344 155.437 13.344H156.013C156.093 13.344 156.157 13.368 156.205 13.416C156.261 13.456 156.285 13.516 156.277 13.596C156.269 13.716 156.205 13.864 156.085 14.04C155.965 14.208 155.793 14.376 155.569 14.544C155.345 14.712 155.073 14.852 154.753 14.964C154.433 15.068 154.065 15.12 153.649 15.12ZM152.017 11.424H155.305V11.388C155.305 11.028 155.237 10.708 155.101 10.428C154.973 10.148 154.785 9.928 154.537 9.768C154.289 9.6 153.993 9.516 153.649 9.516C153.305 9.516 153.009 9.6 152.761 9.768C152.521 9.928 152.337 10.148 152.209 10.428C152.081 10.708 152.017 11.028 152.017 11.388V11.424ZM160.281 15C159.833 15 159.469 14.916 159.189 14.748C158.909 14.572 158.705 14.328 158.577 14.016C158.449 13.696 158.385 13.32 158.385 12.888V9.72H157.449C157.369 9.72 157.301 9.696 157.245 9.648C157.197 9.592 157.173 9.524 157.173 9.444V9.036C157.173 8.956 157.197 8.892 157.245 8.844C157.301 8.788 157.369 8.76 157.449 8.76H158.385V6.756C158.385 6.676 158.409 6.612 158.457 6.564C158.513 6.508 158.581 6.48 158.661 6.48H159.225C159.305 6.48 159.369 6.508 159.417 6.564C159.473 6.612 159.501 6.676 159.501 6.756V8.76H160.989C161.069 8.76 161.133 8.788 161.181 8.844C161.237 8.892 161.265 8.956 161.265 9.036V9.444C161.265 9.524 161.237 9.592 161.181 9.648C161.133 9.696 161.069 9.72 160.989 9.72H159.501V12.804C159.501 13.18 159.565 13.476 159.693 13.692C159.821 13.908 160.049 14.016 160.377 14.016H161.109C161.189 14.016 161.253 14.044 161.301 14.1C161.357 14.148 161.385 14.212 161.385 14.292V14.724C161.385 14.804 161.357 14.872 161.301 14.928C161.253 14.976 161.189 15 161.109 15H160.281ZM164.693 15.12C164.245 15.12 163.861 15.064 163.541 14.952C163.221 14.84 162.961 14.704 162.761 14.544C162.561 14.384 162.409 14.224 162.305 14.064C162.209 13.904 162.157 13.776 162.149 13.68C162.141 13.592 162.169 13.524 162.233 13.476C162.297 13.428 162.361 13.404 162.425 13.404H162.953C163.001 13.404 163.037 13.412 163.061 13.428C163.093 13.436 163.133 13.468 163.181 13.524C163.285 13.636 163.401 13.748 163.529 13.86C163.657 13.972 163.813 14.064 163.997 14.136C164.189 14.208 164.425 14.244 164.705 14.244C165.113 14.244 165.449 14.168 165.713 14.016C165.977 13.856 166.109 13.624 166.109 13.32C166.109 13.12 166.053 12.96 165.941 12.84C165.837 12.72 165.645 12.612 165.365 12.516C165.093 12.42 164.717 12.32 164.237 12.216C163.757 12.104 163.377 11.968 163.097 11.808C162.817 11.64 162.617 11.444 162.497 11.22C162.377 10.988 162.317 10.728 162.317 10.44C162.317 10.144 162.405 9.86 162.581 9.588C162.757 9.308 163.013 9.08 163.349 8.904C163.693 8.728 164.121 8.64 164.633 8.64C165.049 8.64 165.405 8.692 165.701 8.796C165.997 8.9 166.241 9.032 166.433 9.192C166.625 9.344 166.769 9.496 166.865 9.648C166.961 9.8 167.013 9.928 167.021 10.032C167.029 10.112 167.005 10.18 166.949 10.236C166.893 10.284 166.829 10.308 166.757 10.308H166.253C166.197 10.308 166.149 10.296 166.109 10.272C166.077 10.248 166.045 10.22 166.013 10.188C165.933 10.084 165.837 9.98 165.725 9.876C165.621 9.772 165.481 9.688 165.305 9.624C165.137 9.552 164.913 9.516 164.633 9.516C164.233 9.516 163.933 9.6 163.733 9.768C163.533 9.936 163.433 10.148 163.433 10.404C163.433 10.556 163.477 10.692 163.565 10.812C163.653 10.932 163.821 11.04 164.069 11.136C164.317 11.232 164.685 11.336 165.173 11.448C165.701 11.552 166.117 11.692 166.421 11.868C166.725 12.044 166.941 12.248 167.069 12.48C167.197 12.712 167.261 12.98 167.261 13.284C167.261 13.62 167.161 13.928 166.961 14.208C166.769 14.488 166.481 14.712 166.097 14.88C165.721 15.04 165.253 15.12 164.693 15.12Z" fill="#404040"/>
</svg>
