<svg width="20" height="20" viewBox="0 0 20 20" fill="none" xmlns="http://www.w3.org/2000/svg">
<rect width="20" height="20" rx="4" fill="#0F4C5C"/>
<mask id="mask0_105_3947" style="mask-type:alpha" maskUnits="userSpaceOnUse" x="2" y="2" width="16" height="16">
<rect x="2.5" y="2.5" width="15" height="15" fill="#D9D9D9"/>
</mask>
<g mask="url(#mask0_105_3947)">
<path d="M6.875 16.875L8.625 8.0625L7.5 8.5V10.625H6.25V7.6875L9.40625 6.34375C9.55208 6.28125 9.70573 6.24479 9.86719 6.23438C10.0286 6.22396 10.1823 6.24479 10.3281 6.29688C10.474 6.34896 10.612 6.42188 10.7422 6.51562C10.8724 6.60938 10.9792 6.72917 11.0625 6.875L11.6875 7.875C11.9583 8.3125 12.3255 8.67188 12.7891 8.95312C13.2526 9.23438 13.7812 9.375 14.375 9.375V10.625C13.6458 10.625 12.9948 10.474 12.4219 10.1719C11.849 9.86979 11.3594 9.48438 10.9531 9.01562L10.5625 10.9375L11.875 12.1875V16.875H10.625V12.8125L9.3125 11.8125L8.1875 16.875H6.875ZM10.9375 5.9375C10.5938 5.9375 10.2995 5.8151 10.0547 5.57031C9.8099 5.32552 9.6875 5.03125 9.6875 4.6875C9.6875 4.34375 9.8099 4.04948 10.0547 3.80469C10.2995 3.5599 10.5938 3.4375 10.9375 3.4375C11.2812 3.4375 11.5755 3.5599 11.8203 3.80469C12.0651 4.04948 12.1875 4.34375 12.1875 4.6875C12.1875 5.03125 12.0651 5.32552 11.8203 5.57031C11.5755 5.8151 11.2812 5.9375 10.9375 5.9375Z" fill="white"/>
</g>
</svg>
